<svg width="24" height="24" viewBox="0 0 24 24" fill="none" xmlns="http://www.w3.org/2000/svg">
<path d="M19.1875 8C19.677 8 20.0942 8.35487 20.1738 8.83789L21.9863 19.8379C22.0339 20.1275 21.9526 20.4237 21.7627 20.6475C21.5727 20.8713 21.2936 21 21 21H3C2.70641 21 2.4273 20.8713 2.2373 20.6475C2.04739 20.4237 1.96607 20.1275 2.01367 19.8379L3.82617 8.83789L3.84473 8.74805C3.9581 8.31131 4.35369 8 4.8125 8H19.1875Z" stroke="#333333" stroke-width="2" stroke-linejoin="round"/>
<path d="M8 11.9919V5.73041C8 3.67421 9.78649 2 12 2C14.2048 2 16 3.66609 16 5.73041V12" stroke="#333333" stroke-width="2" stroke-miterlimit="10" stroke-linecap="round"/>
</svg>
