<svg width="24" height="20" viewBox="0 0 24 20" fill="none" xmlns="http://www.w3.org/2000/svg">
<path d="M12.6929 19.7311L22.0726 10.4291C24.3772 8.14346 24.7173 4.38331 22.5363 1.98133C21.99 1.37793 21.3255 0.891244 20.5832 0.550976C19.841 0.210696 19.0366 0.0239523 18.2192 0.00215674C17.4018 -0.0196388 16.5885 0.123955 15.8289 0.424182C15.0693 0.72441 14.3794 1.17497 13.8012 1.74837L12.0382 3.49673L10.5161 1.98719C8.21139 -0.298402 4.41987 -0.635608 1.99786 1.52734C1.38943 2.06912 0.898679 2.72817 0.555572 3.46426C0.212454 4.20035 0.0241521 4.99806 0.00217472 5.80869C-0.0198026 6.61934 0.124989 7.42592 0.427721 8.17922C0.730453 8.93251 1.18477 9.61674 1.76296 10.1902L11.3834 19.7311C11.557 19.9033 11.7926 20 12.0382 20C12.2837 20 12.5193 19.9033 12.6929 19.7311Z" fill="#FF0000"/>
</svg>
